# xmcd
#
# Track frame offsets: 
#        300
#        19750
#        42904
#        62993
#        78337
#        97944
#        120445
#        145312
#        165861
#        185027
#        207795
#        233228
#        255048
#        273815
#
# Disc length: 3974 seconds
#
# Revision: 0
# Processed by: cddbd v1.5.2PL0 Copyright (c) Steve Scherf et al.
# Submitted via: ExactAudioCopy v1.0b1
#
DISCID=ae0f820e
DTITLE=Dana Gillespie - These Blue Nights
DYEAR=2007
DGENRE=General Blues
TTITLE0=Raise A Little Hell
TTITLE1=Blue Room
TTITLE2=Come On (If You're Coming)
TTITLE3=Blue Blood
TTITLE4=Hot Stuff
TTITLE5=Who's Got The Blues To Blame
TTITLE6=Be My Sugar
TTITLE7=Blue Night
TTITLE8=Travelling Man Blues
TTITLE9=Blues Line
TTITLE10=Three Hundred Pounds Of Joy
TTITLE11=Have I Got The Blues For You
TTITLE12=True Blue Love
TTITLE13=It Makes Me Blue
EXTD=
EXTT0=
EXTT1=
EXTT2=
EXTT3=
EXTT4=
EXTT5=
EXTT6=
EXTT7=
EXTT8=
EXTT9=
EXTT10=
EXTT11=
EXTT12=
EXTT13=
PLAYORDER=
